# xmcd
#
# Track frame offsets:
#	150
#	16202
#	27345
#	40355
#	53007
#	62829
#	75292
#	86812
#	101117
#	114585
#	126753
#	140540
#	152227
#	167032
#	182620
#	207163
#
# Disc length: 2770 seconds
#
# Revision: 1
# Processed by: cddbd v1.5.2PL0 Copyright (c) Steve Scherf et al.
# Submitted via: audiograbber 1.83.01
#
DISCID=d30ad010
DTITLE=Various Artist - #9085
DYEAR=2002
DGENRE=Karaoke
TTITLE0=Lynn Anderson - Rose Garden
TTITLE1=Lynn Anderson - Rocky Top
TTITLE2=Tammy Wynette - Stand By Your Man
TTITLE3=Marie Osmond - Paper Roses
TTITLE4=Patsy Cline - Walkin' After Midnight
TTITLE5=Patsy Cline - Crazy
TTITLE6=Patsy Cline - Leavin' On Your Mind
TTITLE7=Patsy Cline - She's Got You
TTITLE8=Patsy Cline - I Fall To Pieces
TTITLE9=Brenda Lee - I'm Sorry
TTITLE10=Donna Fargo - The Happiest Girl In The Whole USA
TTITLE11=Dottie West - Country Sunshine
TTITLE12=Loretta Lynn - Coal Miners Daughter
TTITLE13=Jeannie C Riley - Harper Valley PTA
TTITLE14=Skeater Davis - The End Of The World
TTITLE15=[data] - Data Track
EXTD=Priddis - The Entertainment Series - Best Of Classic Country - #9085
EXTT0=
EXTT1=
EXTT2=
EXTT3=
EXTT4=
EXTT5=
EXTT6=
EXTT7=
EXTT8=
EXTT9=
EXTT10=
EXTT11=
EXTT12=
EXTT13=
EXTT14=
EXTT15=
PLAYORDER=
